{
  "accessors": [
    {
      "bufferView": 2,
      "componentType": 5126,
      "count": 2657,
      "max": [
        12.926199913024902,
        6.5176000595092773,
        13.878999710083008
      ],
      "min": [
        -11.934399604797363,
        0,
        -10.935299873352051
      ],
      "type": "VEC3"
    },
    {
      "bufferView": 2,
      "byteOffset": 31884,
      "componentType": 5126,
      "count": 2657,
      "max": [
        0.99992191791534424,
        1,
        0.99805760383605957
      ],
      "min": [
        -0.99992191791534424,
        -1,
        -0.99805760383605957
      ],
      "type": "VEC3"
    },
    {
      "bufferView": 1,
      "componentType": 5126,
      "count": 2657,
      "max": [
        1,
        -0
      ],
      "min": [
        0,
        -1
      ],
      "type": "VEC2"
    },
    {
      "bufferView": 0,
      "componentType": 5125,
      "count": 14538,
      "max": [
        2656
      ],
      "min": [
        0
      ],
      "type": "SCALAR"
    },
    {
      "bufferView": 2,
      "byteOffset": 63768,
      "componentType": 5126,
      "count": 298,
      "max": [
        11.762499809265137,
        6.1013998985290527,
        13.878999710083008
      ],
      "min": [
        -11.934399604797363,
        2.3835999965667725,
        -9.2221002578735352
      ],
      "type": "VEC3"
    },
    {
      "bufferView": 2,
      "byteOffset": 67344,
      "componentType": 5126,
      "count": 298,
      "max": [
        0.90631341934204102,
        1,
        0.99805760383605957
      ],
      "min": [
        -0.99992191791534424,
        0,
        -0.42260625958442688
      ],
      "type": "VEC3"
    },
    {
      "bufferView": 1,
      "byteOffset": 21256,
      "componentType": 5126,
      "count": 298,
      "max": [
        1,
        -0.070200003683567047
      ],
      "min": [
        0.068999998271465302,
        -1
      ],
      "type": "VEC2"
    },
    {
      "bufferView": 0,
      "byteOffset": 58152,
      "componentType": 5125,
      "count": 1338,
      "max": [
        297
      ],
      "min": [
        0
      ],
      "type": "SCALAR"
    },
    {
      "bufferView": 2,
      "byteOffset": 70920,
      "componentType": 5126,
      "count": 7805,
      "max": [
        10.198599815368652,
        6.8701000213623047,
        12.41409969329834
      ],
      "min": [
        -6.4429001808166504,
        -1.5705000162124634,
        -5.1814999580383301
      ],
      "type": "VEC3"
    },
    {
      "bufferView": 2,
      "byteOffset": 164580,
      "componentType": 5126,
      "count": 7805,
      "max": [
        0.99992191791534424,
        1,
        0.999775230884552
      ],
      "min": [
        -0.99992191791534424,
        -1,
        -0.999775230884552
      ],
      "type": "VEC3"
    },
    {
      "bufferView": 1,
      "byteOffset": 23640,
      "componentType": 5126,
      "count": 7805,
      "max": [
        1,
        -0
      ],
      "min": [
        0,
        -1
      ],
      "type": "VEC2"
    },
    {
      "bufferView": 0,
      "byteOffset": 63504,
      "componentType": 5125,
      "count": 44100,
      "max": [
        7804
      ],
      "min": [
        0
      ],
      "type": "SCALAR"
    }
  ],
  "asset": {
    "extras": {
      "author": "IronEqual (https://sketchfab.com/ie-niels)",
      "license": "CC-BY-4.0 (http://creativecommons.org/licenses/by/4.0/)",
      "source": "https://sketchfab.com/3d-models/roomba-from-poly-by-google-a3b4d52293614b018afb2aa2dd9b4654",
      "title": "Roomba from Poly by Google"
    },
    "generator": "Sketchfab-9.96.0",
    "version": "2.0"
  },
  "bufferViews": [
    {
      "buffer": 0,
      "byteLength": 239904,
      "byteOffset": 0,
      "name": "floatBufferViews",
      "target": 34963
    },
    {
      "buffer": 0,
      "byteLength": 86080,
      "byteOffset": 239904,
      "byteStride": 8,
      "name": "floatBufferViews",
      "target": 34962
    },
    {
      "buffer": 0,
      "byteLength": 258240,
      "byteOffset": 325984,
      "byteStride": 12,
      "name": "floatBufferViews",
      "target": 34962
    }
  ],
  "buffers": [
    {
      "byteLength": 584224,
      "uri": "scene.bin"
    }
  ],
  "materials": [
    {
      "doubleSided": true,
      "emissiveFactor": [
        0,
        0,
        0
      ],
      "name": "04___Default",
      "pbrMetallicRoughness": {
        "baseColorFactor": [
          1,
          1,
          1,
          1
        ],
        "metallicFactor": 0,
        "roughnessFactor": 0.96994800000000003
      }
    },
    {
      "doubleSided": true,
      "emissiveFactor": [
        0,
        0,
        0
      ],
      "name": "03___Default",
      "pbrMetallicRoughness": {
        "baseColorFactor": [
          0.0077999999999999996,
          0.0077999999999999996,
          0.0077999999999999996,
          1
        ],
        "metallicFactor": 0,
        "roughnessFactor": 0.96994800000000003
      }
    },
    {
      "doubleSided": true,
      "emissiveFactor": [
        0,
        0,
        0
      ],
      "name": "02___Default",
      "pbrMetallicRoughness": {
        "baseColorFactor": [
          0.2039,
          0.2039,
          0.2039,
          1
        ],
        "metallicFactor": 0,
        "roughnessFactor": 0.96994800000000003
      }
    }
  ],
  "meshes": [
    {
      "primitives": [
        {
          "attributes": {
            "NORMAL": 1,
            "POSITION": 0,
            "TEXCOORD_0": 2
          },
          "indices": 3,
          "material": 0,
          "mode": 4
        }
      ]
    },
    {
      "primitives": [
        {
          "attributes": {
            "NORMAL": 5,
            "POSITION": 4,
            "TEXCOORD_0": 6
          },
          "indices": 7,
          "material": 1,
          "mode": 4
        }
      ]
    },
    {
      "primitives": [
        {
          "attributes": {
            "NORMAL": 9,
            "POSITION": 8,
            "TEXCOORD_0": 10
          },
          "indices": 11,
          "material": 2,
          "mode": 4
        }
      ]
    }
  ],
  "nodes": [
    {
      "children": [
        1
      ],
      "name": "RootNode (gltf orientation matrix)",
      "rotation": [
        -0.70710678118654746,
        -0,
        -0,
        0.70710678118654757
      ]
    },
    {
      "children": [
        2
      ],
      "name": "RootNode (model correction matrix)"
    },
    {
      "children": [
        3
      ],
      "name": "root"
    },
    {
      "children": [
        4
      ],
      "matrix": [
        1,
        0,
        0,
        0,
        0,
        2.2204460492503131e-16,
        1,
        0,
        0,
        -1,
        2.2204460492503131e-16,
        0,
        0,
        0,
        0,
        1
      ],
      "name": "GLTF_SceneRootNode"
    },
    {
      "children": [
        5,
        6,
        7
      ],
      "name": "node-0_0"
    },
    {
      "mesh": 0,
      "name": ""
    },
    {
      "mesh": 1,
      "name": ""
    },
    {
      "mesh": 2,
      "name": ""
    }
  ],
  "scene": 0,
  "scenes": [
    {
      "name": "OSG_Scene",
      "nodes": [
        0
      ]
    }
  ]
}

